<svg width="408" height="422" viewBox="0 0 408 422" fill="none" xmlns="http://www.w3.org/2000/svg">
<g filter="url(#filter0_d_1_26)">
<path d="M4 0L204 345.008L404 0H324L204 207.008L83.008 0H4Z" fill="#2299EE"/>
<path d="M42 360.455L48.7045 398.364H49.2273L68.4318 360.455H76.0227L51.5455 407H43.4318L34.4091 360.455H42ZM98.9943 392.523L102.403 372.091H109.222L103.403 407H96.7216L97.7443 400.955H97.3807C96.2898 402.818 94.7443 404.371 92.7443 405.614C90.7595 406.841 88.4564 407.455 85.8352 407.455C83.5928 407.455 81.6913 406.962 80.1307 405.977C78.5852 404.977 77.4867 403.5 76.8352 401.545C76.1837 399.591 76.0928 397.174 76.5625 394.295L80.2898 372.091H87.0852L83.517 393.477C83.1383 395.856 83.4943 397.75 84.5852 399.159C85.6761 400.568 87.267 401.273 89.358 401.273C90.6307 401.273 91.9489 400.955 93.3125 400.318C94.6761 399.682 95.8807 398.72 96.9261 397.432C97.9867 396.144 98.6761 394.508 98.9943 392.523ZM127.489 407.705C124.064 407.705 121.231 406.97 118.989 405.5C116.761 404.015 115.201 401.932 114.307 399.25C113.413 396.553 113.269 393.394 113.875 389.773C114.466 386.197 115.655 383.045 117.443 380.318C119.231 377.591 121.458 375.462 124.125 373.932C126.807 372.402 129.769 371.636 133.011 371.636C134.981 371.636 136.837 371.962 138.58 372.614C140.337 373.265 141.83 374.288 143.057 375.682C144.284 377.076 145.133 378.886 145.602 381.114C146.087 383.326 146.072 386.015 145.557 389.182L145.17 391.591H117.398L118.193 386.5H139.284C139.602 384.712 139.519 383.129 139.034 381.75C138.549 380.356 137.716 379.258 136.534 378.455C135.367 377.652 133.898 377.25 132.125 377.25C130.307 377.25 128.61 377.727 127.034 378.682C125.458 379.636 124.14 380.856 123.08 382.341C122.034 383.811 121.375 385.326 121.102 386.886L120.307 391.545C119.913 394.091 119.981 396.136 120.511 397.682C121.057 399.227 122.011 400.348 123.375 401.045C124.739 401.742 126.443 402.091 128.489 402.091C129.807 402.091 131.027 401.909 132.148 401.545C133.284 401.167 134.292 400.614 135.17 399.886C136.049 399.144 136.784 398.22 137.375 397.114L143.602 398.273C142.769 400.167 141.572 401.826 140.011 403.25C138.451 404.659 136.61 405.758 134.489 406.545C132.383 407.318 130.049 407.705 127.489 407.705ZM182.455 360.455L174.727 407H167.705L175.432 360.455H182.455ZM194.636 386.273L191.227 407H184.432L190.25 372.091H196.773L195.818 377.773H196.25C197.356 375.909 198.864 374.424 200.773 373.318C202.697 372.197 204.97 371.636 207.591 371.636C209.955 371.636 211.939 372.136 213.545 373.136C215.167 374.121 216.311 375.591 216.977 377.545C217.659 379.5 217.765 381.917 217.295 384.795L213.568 407H206.773L210.341 385.614C210.75 383.083 210.417 381.106 209.341 379.682C208.28 378.242 206.591 377.523 204.273 377.523C202.697 377.523 201.235 377.864 199.886 378.545C198.553 379.227 197.424 380.227 196.5 381.545C195.591 382.848 194.97 384.424 194.636 386.273ZM244.773 372.091L243.886 377.545H224.818L225.705 372.091H244.773ZM232.182 363.727H238.977L233.477 396.75C233.265 398.068 233.303 399.061 233.591 399.727C233.879 400.379 234.318 400.826 234.909 401.068C235.515 401.295 236.189 401.409 236.932 401.409C237.477 401.409 237.955 401.371 238.364 401.295C238.773 401.22 239.098 401.159 239.341 401.114L239.705 406.727C239.25 406.879 238.636 407.03 237.864 407.182C237.106 407.348 236.182 407.439 235.091 407.455C233.303 407.485 231.689 407.167 230.25 406.5C228.811 405.818 227.735 404.788 227.023 403.409C226.311 402.015 226.136 400.265 226.5 398.159L232.182 363.727ZM261.051 407.705C257.627 407.705 254.794 406.97 252.551 405.5C250.324 404.015 248.763 401.932 247.869 399.25C246.975 396.553 246.831 393.394 247.438 389.773C248.028 386.197 249.218 383.045 251.006 380.318C252.794 377.591 255.021 375.462 257.688 373.932C260.369 372.402 263.331 371.636 266.574 371.636C268.544 371.636 270.4 371.962 272.142 372.614C273.9 373.265 275.392 374.288 276.619 375.682C277.847 377.076 278.695 378.886 279.165 381.114C279.65 383.326 279.634 386.015 279.119 389.182L278.733 391.591H250.96L251.756 386.5H272.847C273.165 384.712 273.081 383.129 272.597 381.75C272.112 380.356 271.278 379.258 270.097 378.455C268.93 377.652 267.46 377.25 265.688 377.25C263.869 377.25 262.172 377.727 260.597 378.682C259.021 379.636 257.703 380.856 256.642 382.341C255.597 383.811 254.938 385.326 254.665 386.886L253.869 391.545C253.475 394.091 253.544 396.136 254.074 397.682C254.619 399.227 255.574 400.348 256.938 401.045C258.301 401.742 260.006 402.091 262.051 402.091C263.369 402.091 264.589 401.909 265.71 401.545C266.847 401.167 267.854 400.614 268.733 399.886C269.612 399.144 270.347 398.22 270.938 397.114L277.165 398.273C276.331 400.167 275.134 401.826 273.574 403.25C272.013 404.659 270.172 405.758 268.051 406.545C265.945 407.318 263.612 407.705 261.051 407.705ZM283.784 407L289.602 372.091H296.17L295.239 377.636H295.602C296.542 375.758 297.913 374.28 299.716 373.205C301.519 372.114 303.443 371.568 305.489 371.568C305.928 371.568 306.428 371.583 306.989 371.614C307.549 371.629 308.004 371.667 308.352 371.727L307.261 378.227C307.004 378.152 306.534 378.068 305.852 377.977C305.17 377.871 304.466 377.818 303.739 377.818C302.148 377.818 300.67 378.159 299.307 378.841C297.943 379.508 296.799 380.439 295.875 381.636C294.951 382.818 294.352 384.167 294.08 385.682L290.58 407H283.784ZM318.227 407.773C316.015 407.773 314.083 407.364 312.432 406.545C310.78 405.712 309.561 404.508 308.773 402.932C307.985 401.356 307.78 399.424 308.159 397.136C308.492 395.167 309.144 393.545 310.114 392.273C311.098 391 312.295 389.992 313.705 389.25C315.114 388.492 316.644 387.924 318.295 387.545C319.947 387.167 321.614 386.886 323.295 386.705C325.417 386.462 327.136 386.258 328.455 386.091C329.788 385.924 330.788 385.667 331.455 385.318C332.121 384.955 332.523 384.364 332.659 383.545V383.386C332.977 381.417 332.689 379.886 331.795 378.795C330.917 377.689 329.386 377.136 327.205 377.136C324.932 377.136 323.023 377.636 321.477 378.636C319.947 379.636 318.818 380.758 318.091 382L312 380.545C313.091 378.424 314.477 376.712 316.159 375.409C317.856 374.091 319.712 373.136 321.727 372.545C323.742 371.939 325.803 371.636 327.909 371.636C329.303 371.636 330.75 371.803 332.25 372.136C333.75 372.455 335.114 373.045 336.341 373.909C337.583 374.773 338.508 376.008 339.114 377.614C339.72 379.205 339.811 381.273 339.386 383.818L335.545 407H328.909L329.727 402.227H329.455C328.879 403.106 328.076 403.97 327.045 404.818C326.03 405.667 324.788 406.371 323.318 406.932C321.848 407.492 320.152 407.773 318.227 407.773ZM320.545 402.318C322.439 402.318 324.114 401.947 325.568 401.205C327.038 400.462 328.227 399.492 329.136 398.295C330.045 397.083 330.614 395.788 330.841 394.409L331.591 389.909C331.303 390.152 330.795 390.371 330.068 390.568C329.356 390.765 328.553 390.939 327.659 391.091C326.765 391.242 325.886 391.371 325.023 391.477C324.174 391.583 323.47 391.682 322.909 391.773C321.576 391.939 320.326 392.22 319.159 392.614C318.008 393.008 317.045 393.576 316.273 394.318C315.5 395.045 315.015 396.015 314.818 397.227C314.545 398.909 314.947 400.182 316.023 401.045C317.114 401.894 318.621 402.318 320.545 402.318ZM359.21 407.705C355.816 407.705 353.036 406.939 350.869 405.409C348.703 403.864 347.195 401.735 346.347 399.023C345.498 396.311 345.362 393.205 345.938 389.705C346.513 386.159 347.688 383.03 349.46 380.318C351.248 377.591 353.483 375.462 356.165 373.932C358.862 372.402 361.854 371.636 365.142 371.636C367.794 371.636 370.074 372.129 371.983 373.114C373.892 374.083 375.339 375.447 376.324 377.205C377.309 378.962 377.733 381.015 377.597 383.364H370.983C370.877 381.727 370.271 380.318 369.165 379.136C368.059 377.955 366.43 377.364 364.278 377.364C362.384 377.364 360.642 377.864 359.051 378.864C357.46 379.848 356.119 381.258 355.028 383.091C353.938 384.909 353.195 387.061 352.801 389.545C352.377 392.091 352.4 394.288 352.869 396.136C353.339 397.985 354.203 399.417 355.46 400.432C356.718 401.447 358.301 401.955 360.21 401.955C361.513 401.955 362.725 401.72 363.847 401.25C364.983 400.765 365.983 400.076 366.847 399.182C367.725 398.288 368.407 397.212 368.892 395.955H375.528C374.877 398.212 373.786 400.227 372.256 402C370.741 403.773 368.877 405.167 366.665 406.182C364.453 407.197 361.968 407.705 359.21 407.705ZM403.023 372.091L402.136 377.545H383.068L383.955 372.091H403.023ZM390.432 363.727H397.227L391.727 396.75C391.515 398.068 391.553 399.061 391.841 399.727C392.129 400.379 392.568 400.826 393.159 401.068C393.765 401.295 394.439 401.409 395.182 401.409C395.727 401.409 396.205 401.371 396.614 401.295C397.023 401.22 397.348 401.159 397.591 401.114L397.955 406.727C397.5 406.879 396.886 407.03 396.114 407.182C395.356 407.348 394.432 407.439 393.341 407.455C391.553 407.485 389.939 407.167 388.5 406.5C387.061 405.818 385.985 404.788 385.273 403.409C384.561 402.015 384.386 400.265 384.75 398.159L390.432 363.727Z" fill="#35495E"/>
<path d="M83.008 0L204 208L324 0H250L204 80L157.008 0H83.008Z" fill="#35495E"/>
</g>
<defs>
<filter id="filter0_d_1_26" x="0" y="0" width="408" height="415.773" filterUnits="userSpaceOnUse" color-interpolation-filters="sRGB">
<feFlood flood-opacity="0" result="BackgroundImageFix"/>
<feColorMatrix in="SourceAlpha" type="matrix" values="0 0 0 0 0 0 0 0 0 0 0 0 0 0 0 0 0 0 127 0" result="hardAlpha"/>
<feOffset dy="4"/>
<feGaussianBlur stdDeviation="2"/>
<feComposite in2="hardAlpha" operator="out"/>
<feColorMatrix type="matrix" values="0 0 0 0 0 0 0 0 0 0 0 0 0 0 0 0 0 0 0.25 0"/>
<feBlend mode="normal" in2="BackgroundImageFix" result="effect1_dropShadow_1_26"/>
<feBlend mode="normal" in="SourceGraphic" in2="effect1_dropShadow_1_26" result="shape"/>
</filter>
</defs>
</svg>
